<svg width="24" height="24" viewBox="0 0 24 24" fill="none" xmlns="http://www.w3.org/2000/svg"><path d="M10.7352 4.49348C10.5404 4.49915 10.3555 4.58041 10.2196 4.72004L3.21958 11.72C3.07898 11.8607 3 12.0514 3 12.2503C3 12.4492 3.07898 12.6399 3.21958 12.7806L10.2196 19.7806C10.2887 19.8526 10.3715 19.91 10.4631 19.9496C10.5547 19.9892 10.6532 20.0101 10.753 20.0111C10.8528 20.0121 10.9518 19.9932 11.0442 19.9555C11.1365 19.9178 11.2205 19.862 11.291 19.7915C11.3616 19.7209 11.4174 19.637 11.4551 19.5446C11.4928 19.4522 11.5117 19.3532 11.5107 19.2535C11.5097 19.1537 11.4887 19.0551 11.4492 18.9635C11.4096 18.8719 11.3521 18.7891 11.2801 18.72L5.5604 13.0003L20.2499 13.0003C20.3492 13.0017 20.4479 12.9834 20.5401 12.9463C20.6324 12.9092 20.7163 12.8542 20.7871 12.7844C20.8579 12.7146 20.9141 12.6315 20.9524 12.5398C20.9908 12.4481 21.0105 12.3497 21.0105 12.2503C21.0105 12.1509 20.9908 12.0525 20.9524 11.9608C20.9141 11.8691 20.8579 11.786 20.7871 11.7162C20.7163 11.6464 20.6324 11.5914 20.5401 11.5543C20.4479 11.5173 20.3492 11.4989 20.2499 11.5003L5.5604 11.5003L11.2801 5.78058C11.3883 5.67521 11.4622 5.53962 11.4921 5.39157C11.5219 5.24351 11.5064 5.08989 11.4475 4.95081C11.3886 4.81173 11.2891 4.69366 11.162 4.61206C11.0349 4.53046 10.8862 4.48913 10.7352 4.49348Z" fill="#757A85"/></svg>