<svg width="24" height="24" viewBox="0 0 24 24" fill="none" xmlns="http://www.w3.org/2000/svg"><path d="M4.49219 10.7579C4.49222 10.9071 4.53679 11.053 4.62019 11.1768C4.70358 11.3006 4.82202 11.3967 4.96033 11.4528C5.09865 11.5089 5.25056 11.5224 5.39662 11.4917C5.54269 11.461 5.67627 11.3874 5.78027 11.2803L11.5 5.56061L11.5 20.2501C11.4986 20.3494 11.517 20.4481 11.554 20.5403C11.5911 20.6326 11.6461 20.7165 11.7159 20.7873C11.7857 20.8581 11.8688 20.9143 11.9605 20.9526C12.0522 20.991 12.1506 21.0107 12.25 21.0107C12.3494 21.0107 12.4478 20.991 12.5395 20.9526C12.6312 20.9143 12.7143 20.8581 12.7841 20.7873C12.8539 20.7165 12.9089 20.6326 12.946 20.5403C12.983 20.4481 13.0014 20.3494 13 20.2501L13 5.56061L18.7197 11.2803C18.7888 11.3523 18.8716 11.4098 18.9632 11.4494C19.0548 11.489 19.1534 11.5099 19.2532 11.5109C19.3529 11.5119 19.4519 11.493 19.5443 11.4553C19.6367 11.4176 19.7206 11.3618 19.7912 11.2912C19.8617 11.2207 19.9175 11.1367 19.9552 11.0444C19.9929 10.952 20.0118 10.853 20.0108 10.7532C20.0098 10.6534 19.9889 10.5549 19.9493 10.4633C19.9097 10.3717 19.8523 10.2889 19.7803 10.2198L12.7803 3.21979C12.6396 3.07919 12.4489 3.00021 12.25 3.00021C12.0511 3.00021 11.8604 3.07919 11.7197 3.21979L4.71973 10.2198C4.64773 10.2897 4.5905 10.3733 4.55142 10.4658C4.51233 10.5582 4.49219 10.6575 4.49219 10.7579Z" fill="#4D515B"/></svg>