<svg width="24" height="24" viewBox="0 0 24 24" fill="none" xmlns="http://www.w3.org/2000/svg"><rect width="24" height="24" rx="12" fill="#F85656"/><path d="M7.58819 7C7.43767 7 7.28714 7.05748 7.17228 7.17233C6.94257 7.40204 6.94257 7.77443 7.17228 8.00414L11.1682 12L7.17228 15.9959C6.94257 16.2256 6.94257 16.598 7.17228 16.8277C7.28728 16.9427 7.4376 17 7.58819 17C7.73878 17 7.88909 16.9427 8.00409 16.8277L12 12.8318L15.9959 16.8277C16.1109 16.9427 16.2612 17 16.4118 17C16.5624 17 16.7127 16.9427 16.8277 16.8277C17.0574 16.598 17.0574 16.2256 16.8277 15.9959L12.8318 12L16.8277 8.00414C17.0574 7.77443 17.0574 7.40204 16.8277 7.17233C16.598 6.94263 16.2256 6.94263 15.9959 7.17233L12 11.1682L8.00409 7.17233C7.88924 7.05748 7.7387 7 7.58819 7Z" fill="white"/></svg>