<svg width="24" height="25" viewBox="0 0 24 25" fill="none" xmlns="http://www.w3.org/2000/svg"><path d="M12.4102 2.00973C7.54323 1.78063 3.5 5.67839 3.5 10.5V13.25V16.25C3.5 17.6857 4.60643 18.866 6.01172 18.9873C6.13582 20.9396 7.76785 22.5 9.75 22.5H10.2568C10.4853 22.8015 10.8435 23 11.25 23H12.75C13.439 23 14 22.4395 14 21.75C14 21.0605 13.439 20.5 12.75 20.5H11.25C10.8435 20.5 10.4853 20.6984 10.2568 21H9.75C8.58402 21 7.64858 20.1303 7.52441 19H8.25C8.6645 19 9 18.664 9 18.25V13.25C9 12.836 8.6645 12.5 8.25 12.5H5V10.5C5 6.51254 8.30479 3.31788 12.3389 3.50778C16.0961 3.68444 19 6.92997 19 10.7187V12.5H15.75C15.3355 12.5 15 12.836 15 13.25V18.25C15 18.664 15.3355 19 15.75 19H17.75C19.2665 19 20.5 17.766 20.5 16.25V12.5V10.7187C20.5 6.16146 16.9899 2.22507 12.4102 2.00973Z" fill="black"/></svg>