<?xml version="1.0" encoding="UTF-8"?><!DOCTYPE svg PUBLIC "-//W3C//DTD SVG 1.1//EN" "http://www.w3.org/Graphics/SVG/1.1/DTD/svg11.dtd"><!--Creator: CorelDRAW--><svg xmlns="http://www.w3.org/2000/svg" xml:space="preserve" width="410.541mm" height="271.909mm" version="1.1" style="shape-rendering:geometricPrecision; text-rendering:geometricPrecision; image-rendering:optimizeQuality; fill-rule:evenodd; clip-rule:evenodd" viewBox="0 0 12394.29 8208.95" xmlns:xlink="http://www.w3.org/1999/xlink" xmlns:xodm="http://www.corel.com/coreldraw/odm/2003"><defs><style type="text/css"><![CDATA[
    .str1 {stroke:#373435;stroke-width:6.04;stroke-miterlimit:22.9256}
    .str0 {stroke:#373435;stroke-width:6.04;stroke-linecap:round;stroke-linejoin:round;stroke-miterlimit:22.9256}
    .fil0 {fill:none}
   ]]></style></defs><g id="Слой_x0020_1"><metadata id="CorelCorpID_0Corel-Layer"/><path class="fil0 str0" d="M12391.27 4313.58c0,0 -103.02,-16.77 -154.53,-9.58 -51.51,7.19 -164.12,25.15 -164.12,25.15l-1.2 94.64c0,0 -1.2,27.55 -29.95,-13.18 -28.75,-40.73 -106.62,-160.52 -142.55,-176.09 -35.94,-15.58 -124.58,-3.6 -159.32,2.39 -34.74,5.99 -55.11,11.98 -62.29,-38.33 -7.19,-50.31 -20.36,-115 -20.36,-115 0,0 -10.78,-47.92 -49.12,-14.38 -38.33,33.54 -43.12,47.92 -43.12,47.92l-13.18 -39.53c0,0 -3.59,-13.18 -22.76,-3.6 -19.17,9.59 -69.48,35.94 -69.48,35.94l-11.98 -125.78 -106.62 -115 -51.51 1.2 -1.2 -68.28c0,0 -20.37,-44.32 -35.94,-45.52 -15.57,-1.2 -53.9,11.98 -37.13,45.52 16.77,33.54 43.12,52.71 27.55,105.42 -15.57,52.71 -38.33,101.82 -38.33,101.82 0,0 -27.55,31.15 -52.71,3.6 -25.16,-27.55 -39.53,-45.52 -39.53,-45.52l13.17 212.03 -55.1 -14.37c0,0 -17.97,-11.98 -31.15,13.17 -13.18,25.16 -15.21,28.77 -15.21,28.77l-64.54 -68.92 -0.8 80.08 -57.54 -51.48c0,0 -123.97,6.25 -150.01,-8.34 -26.05,-14.58 -100.01,-53.13 -100.01,-53.13 0,0 -16.66,1.04 -20.83,-40.63 -4.17,-41.67 -36.46,-141.68 -59.38,-154.18 -22.92,-12.5 -47.92,0 -76.05,38.55 -28.13,38.54 -39.59,44.79 -63.55,38.54 -23.96,-6.25 -9.37,-22.91 -28.13,-40.63 -18.75,-17.71 -106.26,-33.34 -138.56,-42.71 -32.29,-9.38 -78.13,-23.96 -78.13,-23.96 0,0 -44.79,-14.58 9.38,-60.42 54.17,-45.84 173.97,-125.01 173.97,-125.01 0,0 26.05,-12.5 26.05,-40.63 0,-28.13 2.08,-39.59 27.09,-69.8 25,-30.21 107.3,-115.64 107.3,-115.64l97.93 -1.04 0 -97.93 64.59 0c0,0 13.55,7.29 39.59,-23.96 26.04,-31.25 64.59,-70.84 64.59,-70.84 0,0 22.92,1.04 67.71,-33.34 44.8,-34.38 51.05,-37.51 48.97,-57.3 -2.08,-19.79 -55.21,-41.67 -72.92,-50 -17.71,-8.34 -67.71,-30.21 -79.17,-34.38 -11.46,-4.17 -30.21,5.21 -73.97,33.34 -43.75,28.13 -119.8,73.97 -119.8,73.97l-80.22 98.97 -1.04 72.92c0,0 2.08,59.38 -41.67,22.92 -43.75,-36.46 -64.59,-62.51 -76.05,-69.8 -11.46,-7.29 -45.83,-17.71 -68.75,12.5 -22.92,30.21 -51.05,58.34 -55.21,70.84 -4.17,12.5 1.04,21.88 -1.04,29.17 -2.08,7.29 1.04,9.38 -25,8.34 -26.05,-1.04 -37.51,2.08 -40.63,19.79 -3.12,17.71 -11.46,28.13 -11.46,48.96 0,20.84 -8.34,37.5 -35.42,60.42 -27.09,22.92 -113.55,109.39 -113.55,109.39 0,0 -17.71,29.17 -76.05,31.25 -58.34,2.08 -145.85,47.92 -191.69,84.38 -45.84,36.46 -112.51,104.18 -112.51,104.18l0 79.17c0,0 -47.92,-23.96 -89.59,-5.21 -41.67,18.75 -89.59,51.05 -89.59,51.05 0,0 -60.42,31.25 -55.21,100.01 5.21,68.76 3.12,90.63 3.12,90.63 0,0 6.25,29.17 -39.59,48.96 -45.84,19.8 -84.38,57.29 -98.97,77.09 -14.58,19.8 -40.63,14.58 -59.38,25 -18.75,10.42 -21.88,64.59 -18.75,83.34 3.12,18.75 5.21,40.63 -23.96,42.71 -29.17,2.08 -73.97,8.34 -80.22,40.63 -6.25,32.29 0,128.14 15.63,179.18 15.63,51.05 36.46,93.76 29.17,114.59 -7.29,20.84 -47.92,28.13 -84.38,20.84 -36.46,-7.29 -145.85,-52.09 -200.02,-84.38 -54.17,-32.29 -144.81,-71.88 -159.39,-87.51 -14.58,-15.63 -7.29,-29.17 11.46,-52.09 18.75,-22.92 57.3,-130.22 55.21,-165.64 -2.08,-35.42 0,-67.71 -33.34,-53.13 -33.34,14.58 -26.05,37.51 -54.17,30.21 -28.13,-7.29 -25,-60.43 -33.34,-94.8 -8.34,-34.38 -20.84,-68.75 -39.59,-54.17 -18.75,14.58 -15.62,34.37 -39.59,38.54 -23.96,4.17 -33.34,13.55 -58.34,-9.37 -25,-22.92 -66.68,-16.67 -153.14,5.21 -86.46,21.88 -175.02,48.96 -229.19,48.96 -54.17,0 -288.57,3.12 -332.32,3.12 -43.75,0 -48.97,10.42 -66.67,-55.21 -17.71,-65.63 -102.09,-382.33 -119.8,-461.5 -17.71,-79.17 -63.55,-307.32 -63.55,-307.32l-320.86 13.54 -16.67 -390.66c0,0 41.67,5.21 39.59,-20.83 -2.08,-26.05 10.42,-524.01 10.42,-524.01l-202.1 93.76 -210.44 -399 -166.68 -102.09 -259.4 -306.28 -321.91 179.18 -842.79 -89.59 -655.27 94.8c0,0 -65.63,15.63 -104.18,16.67 -38.55,1.04 -42.43,-3.12 -42.43,-3.12l7.19 15.46 -37.58 -2.13 -598.26 -759 -5.79 -114.62 -1607.29 -1259.4 -1765.93 364.07 -426.15 3465.56 324.02 63.4c0,0 209.55,28.17 244.77,45.78 35.22,17.61 98.65,59.11 142.68,56.52 44.04,-2.59 42.48,-8.81 45.07,-27.46 2.59,-18.65 21.76,-40.4 48.7,-50.77 26.94,-10.36 50.25,-26.42 50.25,-26.42 0,0 -38.85,-3.11 -50.77,-23.31 -11.92,-20.21 -31.6,-57.51 -37.82,-124.34 -6.22,-66.83 -13.98,-192.72 -13.47,-209.82 0.52,-17.1 -24.87,-17.1 -31.09,-63.21 -6.22,-46.11 -9.84,-67.87 43,-72.53 52.84,-4.66 74.6,-38.85 91.7,-55.95 17.1,-17.1 122.78,-155.42 150.24,-164.74 27.46,-9.33 91.7,-16.58 126.93,-10.36 35.23,6.22 90.14,31.6 115.01,31.6 24.87,0 163.71,-34.71 179.25,-51.81 15.54,-17.1 38.85,-110.35 46.63,-153.35 7.77,-43 16.06,-122.26 99.47,-92.22 83.41,30.05 35.75,39.37 130.03,38.85 94.29,-0.52 84.96,102.06 84.96,129.52 0,27.45 6.22,47.14 6.22,47.14l102.06 -29.01 -84.44 -153.87c0,0 -8.29,-9.84 -36.78,-22.28 -28.49,-12.43 -94.29,-86.52 -102.06,-103.61 -7.77,-17.1 -36.79,-69.94 47.14,-67.35 83.93,2.59 203.6,26.43 221.22,16.58 17.62,-9.84 22.8,-15.03 32.64,-46.11 9.84,-31.08 13.99,-62.17 13.99,-62.17 0,0 9.84,-57.5 32.64,8.29 22.8,65.79 38.85,111.38 111.38,151.79 72.53,40.41 138.84,92.21 199.98,99.47 61.13,7.25 91.7,31.6 82.89,86 -8.81,54.4 -35.75,115.53 21.24,124.34 56.99,8.81 88.59,27.97 104.65,41.96 16.06,13.99 84.96,18.13 122.78,10.36 37.82,-7.77 108.28,-18.13 129,-26.94 20.72,-8.81 62.17,-20.21 89.11,28.49 26.94,48.7 44.04,83.41 41.45,109.31 -2.59,25.9 -25.38,45.59 -33.67,102.58 -8.29,56.99 -19.17,80.3 -5.7,95.33 13.47,15.03 50.25,39.37 82.89,71.49 32.64,32.12 92.75,103.24 100.69,113.62 7.94,10.39 20.15,16.49 6.41,18.02 -13.74,1.53 -88.27,-11.3 -111.49,-2.75 -23.21,8.55 -62.31,40.01 -32.68,88.58 29.63,48.56 42.15,75.14 60.48,87.05 18.33,11.91 14.66,21.07 -4.89,34.51 -19.55,13.44 -95.26,110.47 -16.75,185.73 78.51,75.26 75.72,33.45 101.74,49.71 26.01,16.26 79.9,88.73 112.42,101.27 32.52,12.54 76.18,29.26 142.15,5.57 65.97,-23.69 178.39,31.59 200.69,32.06 22.3,0.46 80.84,-24.16 137.51,8.82 56.67,32.98 103.13,59.93 124.5,57.61 21.37,-2.32 51.56,-18.12 55.75,-51.56 4.18,-33.45 20.44,-120.32 123.11,-63.64 102.66,56.68 233.21,156.09 261.08,184.89 27.87,28.8 63.64,69.68 61.32,133.79 -2.32,64.11 -6.04,104.99 14.87,154.7 20.91,49.71 104.99,293.13 104.99,293.13l104.24 80.21c0,0 32.93,111.68 44.39,197.59 11.45,85.91 14.32,187.57 14.32,187.57 0,0 434.57,355.1 465.35,373 30.78,17.9 317.87,231.24 339.35,267.76 21.48,36.51 114.55,191.86 151.06,215.49 36.51,23.63 181.13,122.43 213.34,151.78 32.22,29.35 84.48,77.32 109.54,85.19 25.06,7.88 52.27,7.87 64.43,-15.03 12.17,-22.91 35.8,-69.44 73.02,-30.07 37.23,39.37 139.55,126.37 173.75,161.83 34.2,35.47 63.97,74.74 88.67,92.47 24.7,17.73 115.27,43.7 152,62.07 36.74,18.36 151.37,101.33 185.57,127.93 34.2,26.6 191.27,151.37 228.64,171 37.37,19.63 148.84,106.4 180.5,115.9 31.67,9.5 60.17,11.4 79.8,-14.57 19.63,-25.97 43.07,-62.7 122.23,-33.57 79.17,29.13 184.94,91.83 224.2,127.3 39.27,35.47 98.17,85.5 143.77,83.6 45.6,-1.9 55.73,-30.4 81.07,-12.67 25.34,17.73 57,45.6 81.07,52.57 24.07,6.97 38,12.03 50.03,8.23 12.03,-3.8 -20.67,70.55 -36.34,97.32 -15.67,26.77 -32.65,70.53 -56.16,84.24 -23.51,13.71 -27.42,60.08 -28.08,96.65 -0.66,36.57 -5.88,181.55 -5.88,181.55 0,0 9.14,35.92 31.35,54.86 22.2,18.94 8.49,31.35 -8.49,54.86 -16.98,23.51 -34.61,50.28 -34.61,50.28 0,0 444.07,-35.26 469.53,-12.41 25.47,22.85 80.98,86.2 94.69,112.97 13.71,26.78 31.34,45.06 31.34,45.06 0,0 25.47,-35.27 71.83,-40.49 46.37,-5.22 70.53,-16.98 112.98,-20.9 42.45,-3.92 88.81,-13.71 133.87,9.14 45.06,22.85 140.4,55.51 141.05,-37.22 0.66,-92.73 -21.55,-128.65 -21.55,-178.93 0,-50.28 27.43,-139.75 80.32,-210.93 52.9,-71.18 103.18,-96 114.28,-144.32 11.1,-48.33 18.94,-69.23 5.22,-91.43 -13.71,-22.2 -22.2,-54.2 14.37,-52.9 36.57,1.31 95.34,1.96 95.34,1.96 0,0 29.39,5.88 35.92,-58.12 6.53,-64 19.59,-47.67 28.73,-64 9.14,-16.33 16.98,-127.34 0.65,-156.08 -16.33,-28.73 -71.84,-96 -105.14,-123.42 -33.3,-27.43 -132.57,-103.18 -131.26,-193.3 1.31,-90.12 3.26,-170.44 31.35,-212.89 28.08,-42.45 35.92,-47.67 35.92,-47.67 0,0 25.47,-18.94 9.14,-48.98 -16.33,-30.04 -48.98,-75.1 -60.73,-96 -11.76,-20.9 -27.43,-57.47 -86.85,-32 -59.43,25.47 -89.47,41.14 -108.4,50.28 -18.94,9.14 -32,7.19 -65.96,-3.92 -33.96,-11.1 -45.71,-18.29 -54.86,-28.73 -9.14,-10.45 -13.72,-41.79 -24.82,-74.45 -11.1,-32.65 -27.43,-65.96 -27.43,-65.96 0,0 -71.83,-2.61 -120.81,-18.29 -48.98,-15.67 -51.59,-11.76 -67.92,-22.86 -16.33,-11.1 -37.88,-35.92 -10.45,-71.83 27.43,-35.92 25.47,-23.51 32,-77.06 6.53,-53.55 20.9,-120.81 29.39,-147.59 8.49,-26.78 11.75,-53.55 40.49,-50.94 28.73,2.61 56.16,8.49 88.81,-20.9 32.65,-29.39 49.63,-39.83 107.75,-36.57 58.12,3.26 542.02,32.65 542.02,32.65 0,0 3.92,-10.45 26.77,-36.57 22.86,-26.12 35.27,-16.98 38.53,-47.02 3.26,-30.04 0,-201.79 0,-201.79 0,0 -7.84,-20.24 30.04,-20.24 37.88,0 65.96,15.67 72.49,-11.1 6.53,-26.78 11.75,-29.39 43.1,-29.39 31.35,0 88.81,-24.16 33.31,-50.28 -55.51,-26.12 -76.41,-13.71 -71.18,-44.41 5.23,-30.69 -7.84,-86.86 23.51,-90.12 31.35,-3.26 96,3.26 112.32,1.96 16.33,-1.3 45.06,-18.28 22.2,-34.61 -22.86,-16.33 -40.49,-26.12 -82.28,-19.59 -41.8,6.53 -62.69,16.32 -95.34,17.63 -32.65,1.31 -62.69,3.26 -82.94,-9.8 -20.25,-13.06 -36.57,-49.63 11.1,-65.3 47.67,-15.67 244.89,-36.57 282.11,-37.88 37.22,-1.31 147.47,22.08 171.71,22.08 24.24,0 27.61,-9.43 6.73,-27.61 -20.87,-18.18 -74.74,-52.52 -74.74,-52.52l78.1 -28.95c0,0 43.09,-13.47 4.71,-57.91 -38.38,-44.44 -80.13,-78.1 -86.19,-109.75 -6.06,-31.65 -31.65,-52.52 -27.61,-78.78 4.04,-26.26 -0.67,-44.44 41.75,-43.09 42.42,1.35 61.27,0 61.27,0 0,0 -10.77,-39.05 2.69,-84.84 13.47,-45.79 17.5,-118.51 53.87,-121.87 36.36,-3.37 80.8,37.04 108.41,76.76 27.61,39.72 68.68,98.98 85.51,107.73 16.83,8.76 43.1,8.76 53.87,-40.4 10.77,-49.16 45.79,-80.12 74.07,-90.23 28.28,-10.1 90.23,-18.18 109.75,-29.63 19.53,-11.45 67.33,-63.96 107.06,-78.1 39.73,-14.14 65.98,-28.28 76.76,-79.45 10.77,-51.17 18.86,-49.82 30.3,-84.16 11.45,-34.34 11.45,-65.99 26.26,-82.82 14.81,-16.83 45.79,-8.75 82.15,20.87 36.36,29.63 77.43,70.02 94.27,99.65 16.83,29.63 16.16,76.76 33.67,94.27 17.5,17.5 83.49,49.82 86.86,84.84 3.37,35.01 -3.37,80.13 -49.16,111.1 -45.79,30.97 -185.64,119.92 -216.31,156.85 -30.66,36.93 -36.93,84.32 29.97,108.71 66.9,24.39 119.17,-10.45 131.01,75.96 11.85,86.41 91.29,68.99 127.53,50.18 36.24,-18.81 71.08,-59.93 122.65,-56.45 51.57,3.48 57.14,8.37 66.9,87.11 9.76,78.74 41.12,81.53 28.57,102.44 -12.54,20.91 -25.78,23.69 -21.6,40.42 4.18,16.73 51.57,13.94 55.75,34.15 4.18,20.21 -0.7,76.66 -0.7,76.66 0,0 69.69,-0 108.02,-10.45 38.33,-10.45 82.93,-19.51 60.63,-41.12 -22.3,-21.6 -62.02,-27.18 -59.93,-41.12 2.09,-13.94 36.93,-39.02 42.51,-56.45 5.58,-17.42 25.09,-23 -17.42,-24.39 -42.51,-1.39 -78.74,6.27 -94.08,-5.58 -15.33,-11.85 -51.57,-61.32 -62.72,-70.38 -11.15,-9.06 -39.72,-34.15 -32.06,-62.72 7.67,-28.57 9.06,-49.48 29.27,-52.27 20.21,-2.79 80.84,-4.18 105.93,-20.21 25.09,-16.03 50.87,-18.81 57.14,-37.63 6.27,-18.82 48.78,-6.97 72.47,13.24 23.69,20.21 95.47,62.02 118.47,75.96 23,13.94 27.88,25.79 27.88,25.79 0,0 33.45,-71.78 63.41,-66.2 29.97,5.57 43.91,84.32 42.51,101.74 -1.39,17.42 82.23,-88.51 99.65,-103.14 17.42,-14.63 23,-34.15 68.29,-37.63 45.3,-3.48 85.02,-4.88 85.02,-4.88 0,0 -85.02,-18.12 -80.84,-45.99 4.18,-27.87 87.11,-28.57 94.78,-56.45 7.67,-27.87 -4.18,-59.23 13.24,-76.66 17.42,-17.42 32.75,-45.99 57.14,-46.69 24.39,-0.7 53.66,10.45 85.72,32.06 32.06,21.6 87.8,53.66 96.17,36.24 8.36,-17.42 -16.03,-71.78 -39.72,-105.93 -23.69,-34.15 -44.6,-89.21 -32.75,-101.75 11.85,-12.54 112.2,16.73 145.65,41.81 33.45,25.09 57.14,29.27 57.14,29.27l-1.39 -62.72 53.66 -0.69c0,0 27.87,-109.41 75.96,-125.44 48.09,-16.03 75.26,-4.18 87.81,-29.97 12.54,-25.78 64.81,-71.08 89.2,-98.26 24.39,-27.18 28.85,-53.84 28.85,-53.84z"/><path class="fil0 str1" d="M11724.06 4239.55c-28.59,12.99 -36.71,28.5 -36.71,55.28 0,26.78 -3.74,51.07 -3.74,51.07 0,0 -193.69,-6.23 -210.51,-1.24 -16.82,4.98 -79.72,51.69 -105.88,52.94 -26.16,1.25 -54.19,-6.85 -69.76,-1.87 -15.57,4.98 -22.42,14.33 -18.68,40.48 3.74,26.16 1.87,75.36 17.44,89.06 15.57,13.7 48.58,30.52 76.61,30.52 28.03,0 83.46,8.72 99.03,26.16 15.57,17.44 23.04,41.73 77.23,39.86 54.19,-1.87 114.6,-8.1 141.38,-0.62 26.78,7.48 54.19,3.12 66.64,34.88 12.46,31.76 11.83,67.26 16.82,82.21 4.98,14.95 16.15,24.21 16.15,24.21"/><path class="fil0 str1" d="M10423.93 3984.85c-16.34,7.18 -9.83,25.41 -24.15,39.73 -14.33,14.33 -22.78,37.11 -35.81,39.07 -13.02,1.95 -14.33,16.93 7.16,24.09 21.49,7.16 39.07,14.97 41.02,28 1.95,13.02 7.81,38.41 -5.21,52.09 -13.02,13.67 -29.3,35.81 -22.14,51.44 7.16,15.63 32.58,73.87 44.27,86.59 11.69,12.73 18.12,17.26 18.12,17.26"/><path class="fil0 str1" d="M10671.63 4617.02c0,0 23.42,8.07 45.86,2.34 22.44,-5.73 62.55,-34.38 69.24,-43.93 6.69,-9.55 25.31,-31.52 25.31,-31.52l115.08 0c0,0 -3.34,39.16 1.91,46.8 5.25,7.64 36.29,23.88 51.09,50.62 14.81,26.74 28.65,55.87 42.5,64.94 13.85,9.08 50.62,20.06 62.08,-7.64 11.46,-27.7 25.79,-61.12 25.79,-74.02 0,-12.89 15.76,-21.49 35.81,-39.16 20.06,-17.67 80.22,-64.94 97.89,-68.76 17.67,-3.82 38.88,-25.28 41.12,-16.15"/><path class="fil0 str1" d="M9156.05 4504.95c21.1,22.57 47.01,47.41 56.73,67.38 9.72,19.97 60.46,73.96 75.58,82.6 15.12,8.64 52.91,42.65 63.7,58.85 10.8,16.19 23.22,23.75 39.41,23.75 16.19,0 86.91,34.55 87.45,49.67 0.54,15.12 -2.16,99.88 2.16,120.93 4.32,21.05 23.21,19.43 22.67,35.09 -0.54,15.66 -12.42,48.59 -24.29,65.86 -11.88,17.27 -9.17,68.02 -4.32,83.14 4.86,15.12 1.58,100.6 1.58,100.6"/><path class="fil0 str1" d="M8821.59 4761.61c0,0 0.12,28.89 -5.44,36.77 -5.56,7.88 -32.42,18.99 -44.47,21.31 -12.05,2.32 -47.71,18.07 -13.43,45.4 34.28,27.33 34.27,46.32 29.18,63 -5.09,16.68 -15.28,48.17 -1.85,64.85 13.43,16.68 -3.7,32.89 -14.82,52.34 -11.12,19.45 -47.25,83.84 -37.52,114.41 9.73,30.57 25.48,69.95 81.06,68.56 55.59,-1.39 169.08,-25.94 195.94,-47.25 26.87,-21.31 75.97,-37.06 97.28,-44.47 21.31,-7.41 60.22,-28.25 66.24,20.38 6.02,48.64 10.81,74.87 10.81,74.87"/><path class="fil0 str1" d="M7764.46 4384.72c0,0 -52.87,9.02 -74.34,18.45 -21.47,9.43 -47.13,23.56 -47.13,23.56l26.71 151.34 172.29 30.9 -167.83 380.58c0,0 210.6,36.8 215.3,49.32 4.7,12.53 21.14,197.29 28.18,212.17 7.05,14.87 25.05,49.32 20.36,67.33 -4.7,18.01 -28.97,41.49 -22.71,57.93 6.26,16.44 37.03,13.28 52.44,12.93 15.41,-0.35 35.38,47.64 43.09,55.7 7.71,8.06 223.35,57.95 248.04,60.96 24.69,3.01 39.15,8.43 51.19,48.78 12.05,40.35 30.72,60.23 21.68,69.26 -9.04,9.03 -59.63,30.72 -68.06,48.78 -8.43,18.07 4.82,22.88 8.43,44.57 3.61,21.68 -6.63,45.17 -21.68,43.37 -15.06,-1.81 -34.93,6.63 -40.35,33.73 -5.42,27.1 -24.09,80.1 11.44,92.75 35.54,12.65 110.1,44.36 110.1,44.36"/><path class="fil0 str1" d="M8517.03 6425.1c0,0 -78.99,25.15 -97.65,26.04 -18.66,0.89 -41.76,22.21 -37.31,58.64 4.44,36.43 15.99,186.57 15.99,186.57 0,0 -103.95,-0.89 -117.28,17.77 -13.33,18.66 -32.87,117.28 -57.75,143.93 -24.88,26.65 -79.96,39.09 -87.96,67.52 -7.99,28.43 18.66,97.73 8,119.05 -10.66,21.32 -68.41,65.75 -114.61,79.07 -46.2,13.33 -87.96,7.99 -106.62,42.64 -18.66,34.65 -111.06,169.7 -111.06,169.7 0,0 0,64.85 -5.33,80.85 -5.33,15.99 -20.25,23.86 -20.25,23.86"/><path class="fil0 str1" d="M8290.62 6136.98c0,0 -185.62,-53.78 -203.52,-55.77 -17.9,-1.99 -29.83,21.21 -51.04,29.83 -21.21,8.62 -44.42,25.19 -65.63,25.19 -21.21,0 -61.65,-13.92 -69.6,-51.04 -7.96,-37.12 -40.44,-102.09 -90.15,-101.42 -49.72,0.66 -95.46,49.71 -111.37,81.53 -15.91,31.82 -52.37,71.6 -80.87,72.26 -28.51,0.66 -42.43,-41.1 -66.95,-60.99 -24.53,-19.89 -72.25,-19.88 -121.31,-0.66 -49.06,19.22 -129.26,68.94 -164.4,68.28 -35.14,-0.66 -82.2,-46.41 -94.13,-78.89 -11.93,-32.48 -53.7,-145.83 -100.76,-144.51 -47.06,1.33 -41.09,21.88 -40.43,47.73 0.66,25.85 1.33,30.49 1.33,30.49 0,0 -283.72,-21.88 -307.58,-3.31 -23.86,18.56 -59,64.96 -82.2,53.03 -15.45,-7.95 -29.4,-14.33 -46.4,-17.9 -4.82,-1.01 -13.54,-3.5 -17.02,-6.64 0,0 28.5,4.45 35.03,-10.45 6.53,-14.9 -21.18,-23.79 -10.46,-28.49 10.72,-4.71 42.87,-3.14 42.87,-3.14 0,0 10.54,-222.38 -2.37,-248.2 -12.91,-25.82 -66.84,-106.34 -45.58,-110.9 21.27,-4.56 180.02,-22.79 194.45,-22.79 14.43,0 16.71,-22.78 20.51,-55.45 3.8,-32.66 15.95,-123.05 22.79,-146.6 6.84,-23.55 28.86,-67.6 89.63,-52.41 60.77,15.19 173.18,104.06 188.37,117.73 15.19,13.67 27.35,42.53 64.56,22.03 37.22,-20.51 154.19,-79.75 165.59,-87.35 11.39,-7.6 28.86,-54.69 -3.8,-64.56 -32.66,-9.87 -45.57,-17.47 -28.1,-58.49 17.47,-41.02 60.01,-119.25 65.32,-142.8 5.32,-23.55 -1.52,-131.4 3.8,-154.95 5.32,-23.55 4.56,-61.53 25.07,-78.24 20.51,-16.71 34.18,5.32 57.73,13.67 23.55,8.36 59.25,9.87 69.88,-8.36 10.63,-18.23 21.27,-22.03 46.33,-20.51 25.07,1.52 48.62,32.66 63.05,59.25 14.43,26.59 22.03,55.45 23.55,64.56 1.52,9.11 7.38,-18.2 7.38,-18.2"/><path class="fil0 str1" d="M6015.67 6521.76c47.2,-44.46 73.05,-81.18 86.65,-97.51 13.6,-16.32 50.32,-29.92 81.61,-39.44 31.28,-9.52 210.82,-80.25 228.5,-82.97 17.68,-2.72 10.03,-13.31 -2.9,-31.54 -12.94,-18.23 -29.99,-34.69 -34.69,-46.45 -4.7,-11.76 8.23,-16.47 21.76,-29.4 13.53,-12.94 124.08,-104.67 134.66,-117.02 10.58,-12.35 39.99,-38.81 45.87,-41.16 5.88,-2.35 24.54,-4.02 24.54,-4.02"/><path class="fil0 str1" d="M6603.14 5985.24c-30.81,-53.95 -39.75,-92.48 -56.26,-93.17 -16.51,-0.69 -44.72,3.44 -44.72,-19.26 0,-22.71 -3.44,-89.44 -3.44,-89.44 0,0 3.44,-16.51 -33.02,-22.02 -36.46,-5.5 -216.72,-83.25 -232.54,-114.89 -15.82,-31.65 -24.77,-12.38 -36.46,-40.59 -11.7,-28.21 8.26,-112.14 41.97,-130.72 33.71,-18.58 30.96,-22.7 61.23,-22.7 30.27,0 35.77,-41.28 67.42,-52.29 31.65,-11.01 51.6,-77.74 46.78,-101.13 -4.82,-23.39 -41.97,-85.31 -39.21,-116.96 2.75,-31.65 27.52,-58.48 82.56,-44.72 55.04,13.76 99.07,41.28 112.83,25.45 13.76,-15.82 48.16,-77.05 54.35,-110.08 6.19,-33.02 32.34,-56.42 58.48,-68.8 26.14,-12.38 49.54,-36.46 57.79,-74.3 8.25,-37.84 13.07,-100.45 13.07,-100.45 0,0 -238.73,8.95 -266.25,3.44 -27.52,-5.5 -52.97,-14.45 -90.13,-68.8 -37.15,-54.35 -79.8,-88.75 -79.8,-114.89 0,-26.14 2.06,-55.04 2.06,-55.04 0,0 -26.14,8.94 -44.72,32.33 -18.58,23.39 -22.01,29.59 -52.97,33.71 -30.96,4.13 -79.8,14.45 -94.25,14.45 -14.45,0 -13.07,0 -23.39,33.02 -10.32,33.02 -11,74.99 -26.83,74.99 -15.83,0 -196.77,-37.15 -211.21,-39.9 -14.45,-2.75 -28.89,-3.44 -28.89,-32.34 0,-28.89 2.07,-121.08 2.07,-121.08 0,0 -84.62,-12.39 -94.25,7.57 -9.63,19.95 -63.98,147.92 -71.55,160.99 -7.57,13.07 -17.2,19.95 -33.02,24.08 -15.82,4.13 -28.9,13.76 -44.03,20.64 -15.13,6.88 -25.45,18.58 -25.45,18.58 0,0 3.44,-39.9 -0.69,-52.97 -4.13,-13.07 -27.52,-53.66 -50.22,-53.66 -22.7,0 -234.6,-116.27 -260.05,-133.47 -25.46,-17.2 -114.2,-68.11 -128.65,-78.43 -14.45,-10.32 8.26,-10.32 -29.58,-10.32 -37.84,0 -61.23,12.38 -74.3,0 -13.07,-12.38 -68.8,-132.09 -76.37,-156.17 -7.57,-24.08 -46.1,-83.93 -72.24,-107.33 -26.14,-23.39 -68.79,-69.49 -82.55,-103.2 -13.76,-33.71 -41.28,-98.38 -41.28,-98.38l-308.22 116.96 194.31 306.82 -161.62 60.46c0,0 72.09,89.53 86.04,105.81 13.95,16.28 90.69,61.62 84.88,88.37 -5.81,26.74 -38.37,104.65 -79.07,141.85 -40.69,37.21 -152.37,162.5 -152.37,162.5"/><path class="fil0 str1" d="M3022.73 3609.59c3.39,-42.83 7.02,-99.93 7.02,-99.93 0,0 24.47,-0.91 51.66,-14.5 27.19,-13.59 85.2,-31.72 115.1,-28.09 29.91,3.62 65.25,-8.16 60.72,51.66 -4.53,59.82 8.16,147.73 34.44,166.76 26.28,19.03 57.09,11.78 81.56,33.53 24.47,21.75 45.32,76.13 60.72,101.51 15.41,25.38 382.46,350.74 382.46,350.74 0,0 6.35,-8.15 31.72,-17.22 25.37,-9.06 57.1,-14.5 69.78,-32.63 12.69,-18.13 19.94,-27.19 58,-17.22 38.06,9.97 192.14,40.78 241.98,77.94 49.85,37.16 138.67,144.1 167.67,211.17 29,67.07 54.38,113.29 54.38,113.29l39.88 -15.37"/><path class="fil0 str1" d="M4444.02 2138.17c0,0 47.48,88.99 51.01,111.7 3.53,22.7 -1.01,23.71 26.74,30.27 27.75,6.56 181.12,63.06 181.12,63.06 0,0 -387.19,693.26 -399.12,733.53 -11.93,40.26 -13.42,137.2 -25.35,168.52 -11.93,31.32 -31.32,96.93 -17.9,134.22 13.42,37.28 56.67,143.16 77.55,153.6 20.88,10.44 11.4,12.25 11.4,12.25 0,0 -190.48,97.85 -190.48,106.4 0,8.56 292.46,470.6 292.46,470.6"/></g></svg>