<svg width="127" height="33" viewBox="0 0 127 33" fill="none" xmlns="http://www.w3.org/2000/svg"><g clip-path="url(#clip0_214_2825)"><path d="M71.8671 9.65068C71.0754 8.87145 70.142 8.25021 69.1171 7.8203C67.5632 7.07937 65.9091 6.5691 64.2074 6.30566C62.288 5.98091 60.3179 6.13368 58.4718 6.75043C57.931 6.93366 57.4223 7.20016 56.9639 7.54025C56.7006 7.73165 56.4752 7.97032 56.2993 8.24405C56.1411 8.47736 56.0644 8.75621 56.081 9.03747C56.0975 9.31872 56.2065 9.58666 56.391 9.79986C56.6372 10.0953 56.9405 10.3381 57.2829 10.5137C57.9629 10.8682 58.6882 11.1281 59.4389 11.2861C60.4769 11.5089 61.528 11.666 62.5858 11.7565C64.4766 11.9142 66.358 12.1693 68.2224 12.5207C69.3433 12.7366 70.4218 13.1322 71.4161 13.6922C72.3363 14.1918 73.1318 14.8921 73.7435 15.7411C74.3551 16.5901 74.7672 17.5659 74.9489 18.5958C75.1877 19.7398 75.1642 20.9229 74.8802 22.0566C74.5962 23.1902 74.0591 24.245 73.309 25.1421C72.4766 26.093 71.4327 26.8361 70.2611 27.3121C68.9455 27.8877 67.5579 28.283 66.1361 28.4872C64.4527 28.7483 62.7458 28.825 61.0458 28.716C58.4476 28.6028 55.8908 28.025 53.497 27.0101C52.6569 26.6479 51.8677 26.1778 51.1494 25.6116C50.7892 25.3219 50.4577 24.9983 50.1594 24.6452C50.1016 24.5874 50.0615 24.5144 50.0436 24.4347C50.0258 24.3549 50.031 24.2718 50.0586 24.1949C50.2417 23.5633 50.4992 22.9556 50.8258 22.3847C51.2613 21.6278 51.7123 20.8801 52.1523 20.1251C52.2091 20.0281 52.2586 20.0088 52.3603 20.061C52.5986 20.1771 52.8297 20.3073 53.0524 20.4509C53.3467 20.6476 53.6428 20.8417 53.9269 21.0522C55.2397 21.9972 56.7539 22.6259 58.3508 22.8889C60.4454 23.2568 62.5742 23.3934 64.6987 23.2962C65.8943 23.252 67.0591 22.9056 68.084 22.2895C68.5579 22.0243 68.9692 21.6608 69.2903 21.2233C69.4435 21.0364 69.5524 20.8173 69.6089 20.5824C69.6655 20.3476 69.6681 20.103 69.6167 19.867C69.5147 19.5046 69.2943 19.1866 68.9906 18.9637C68.5519 18.6314 68.0543 18.3848 67.5239 18.237C66.6277 17.9776 65.7053 17.8185 64.7739 17.763C62.3693 17.6114 59.9777 17.2974 57.6156 16.8231C56.5056 16.6098 55.4231 16.2721 54.3889 15.8163C52.8236 15.1248 51.5755 13.8715 50.8919 12.3047C50.5323 11.472 50.3614 10.5703 50.3912 9.66395C50.421 8.75762 50.6507 7.86905 51.0642 7.06162C51.7662 5.60093 52.8515 4.35738 54.2047 3.46308C55.6967 2.45033 57.3865 1.76416 59.163 1.44965C61.0623 1.09763 63.0064 1.05715 64.9187 1.32978C66.9105 1.57334 68.8592 2.08914 70.7102 2.86271C71.5639 3.21959 72.37 3.6807 73.1101 4.2355C73.3985 4.45757 73.665 4.70672 73.9058 4.97954C73.9714 5.04337 74.016 5.12559 74.0338 5.21529C74.0517 5.305 74.0418 5.39798 74.0056 5.48199C73.6859 6.48266 73.2445 7.44039 72.6912 8.33373C72.4189 8.76021 72.1513 9.19309 71.8671 9.65068Z" fill="#102837"/><path d="M14.1122 1.30776C16.545 1.28052 18.9514 1.81287 21.1449 2.86357C22.4934 3.49866 23.6804 4.4301 24.6173 5.58811C25.1651 6.28367 25.585 7.0707 25.8575 7.91268C25.8945 7.99628 25.9032 8.08963 25.8824 8.17862C25.8616 8.26761 25.8123 8.34741 25.742 8.40597C25.4549 8.68897 25.1486 8.95196 24.8254 9.19305C24.0773 9.76904 23.2534 10.2396 22.3769 10.5914C21.7462 10.8294 21.9443 10.834 21.4135 10.4423C21.1572 10.2429 20.9246 10.0147 20.7205 9.76231C19.4003 8.17473 17.5467 7.12077 15.5056 6.79707C13.5239 6.44113 11.4801 6.74197 9.68562 7.65369C8.84325 8.05413 8.09984 8.63534 7.50847 9.3558C6.91711 10.0763 6.49238 10.9182 6.26462 11.8215C5.6906 13.8749 5.68269 16.0449 6.2417 18.1024C6.52462 19.2817 7.13143 20.3588 7.99392 21.2126C8.8564 22.0664 9.94034 22.6631 11.1239 22.9356C13.6972 23.6442 16.4468 23.3097 18.7744 22.0048C19.3474 21.6977 19.8698 21.3048 20.3236 20.8398C20.822 20.3484 21.1986 19.7476 21.4236 19.0854C21.4813 18.9087 21.4547 18.8767 21.6885 18.9655C21.9627 19.0735 22.2291 19.2001 22.486 19.3444C23.6199 19.9576 24.6906 20.6705 25.7686 21.3733C25.824 21.4011 25.8663 21.4494 25.8865 21.5079C25.9067 21.5664 25.9032 21.6304 25.8768 21.6863C25.5533 22.8449 24.9485 23.9059 24.1158 24.7751C23.1222 25.8155 21.9325 26.6497 20.6151 27.2297C19.0645 27.9324 17.4108 28.3814 15.7173 28.5594C14.4076 28.7112 13.0844 28.7072 11.7756 28.5475C9.00719 28.2728 6.38821 27.1629 4.26721 25.3654C2.54122 23.854 1.28927 21.8769 0.66193 19.672C-0.14466 16.8268 -0.215306 13.8237 0.456597 10.9438C0.898976 9.09716 1.77346 7.38148 3.00835 5.93748C4.24324 4.49348 5.80336 3.36228 7.56079 2.63661C9.13016 1.94875 10.8028 1.52509 12.5108 1.3828C13.0471 1.33247 13.5833 1.32332 14.1122 1.30776Z" fill="#102837"/><path d="M74.8594 1.93382C74.9428 1.89365 75.037 1.88114 75.128 1.89813C77.0365 1.89813 78.9453 1.89813 80.8544 1.89813C81.1184 1.89813 81.1203 1.89812 81.211 2.1379C83.6778 8.61564 86.1711 15.0833 88.5444 21.5976C88.6361 21.8557 88.7277 22.1147 88.8193 22.3728C88.9009 22.598 88.9018 22.5979 89.1539 22.5989C89.439 22.5989 89.7251 22.5989 90.0102 22.5989C90.2549 22.5989 90.254 22.5989 90.3347 22.3618C90.7013 21.2966 91.0624 20.2276 91.441 19.166C93.102 14.4985 94.8475 9.86853 96.569 5.22668C96.9509 4.19739 97.3304 3.16721 97.7074 2.13609C97.7991 1.89905 97.7991 1.89631 98.0319 1.89631C99.9704 1.89631 101.909 1.89631 103.847 1.89631C103.913 1.89631 103.985 1.87435 104.057 1.93567C104.043 2.05775 104.007 2.17638 103.952 2.28618C102.891 5.18734 101.752 8.05828 100.62 10.9311C98.3879 16.5857 96.1267 22.2294 93.8363 27.8621C93.7025 28.1879 93.7758 28.1431 93.4173 28.1431C90.8983 28.1431 88.3757 28.1431 85.8613 28.1495C85.7721 28.1604 85.6819 28.14 85.6061 28.0918C85.5303 28.0435 85.4737 27.9704 85.4461 27.885C84.4634 25.7663 83.6071 23.5955 82.7326 21.432C80.1458 15.0324 77.5569 8.63363 74.9658 2.23583C74.9137 2.14179 74.8777 2.03972 74.8594 1.93382Z" fill="#102837"/><path d="M126.993 28.1375H126.752C124.844 28.1375 122.935 28.1375 121.027 28.1375C120.739 28.1375 120.782 28.2025 120.66 27.8767C118.221 21.463 115.75 15.064 113.404 8.61282C113.29 8.29982 113.179 7.98501 113.066 7.67202C112.984 7.44688 112.983 7.44687 112.732 7.44596C112.447 7.44596 112.161 7.44138 111.876 7.44596C111.625 7.44596 111.623 7.44595 111.547 7.67841C110.867 9.73576 110.131 11.773 109.383 13.8102C107.717 18.3355 106.045 22.859 104.367 27.3807C104.293 27.5829 104.217 27.7852 104.151 27.9902C104.112 28.1128 104.044 28.1732 103.914 28.1476C103.884 28.145 103.853 28.145 103.823 28.1476H98.0679C97.9895 28.1584 97.9097 28.1515 97.8343 28.1275C97.8306 27.9994 97.8623 27.8727 97.9259 27.7614C98.7802 25.4121 99.696 23.0857 100.611 20.7602C103.052 14.557 105.529 8.36815 108.044 2.19365C108.179 1.8651 108.096 1.90171 108.486 1.90171C110.994 1.90171 113.503 1.90171 116.012 1.89439C116.106 1.88351 116.202 1.90615 116.281 1.95835C116.36 2.01055 116.419 2.089 116.446 2.17994C117.419 4.27024 118.263 6.41453 119.127 8.55059C121.721 14.9673 124.316 21.3834 126.913 27.7989C126.974 27.9007 127.002 28.0191 126.993 28.1375Z" fill="#102837"/><path d="M36.7228 0.160156C37.1781 1.22422 37.633 2.28826 38.0877 3.35232C39.8147 7.41456 41.5405 11.4774 43.265 15.5409L47.0619 24.4786C47.0839 24.529 47.0986 24.5821 47.1169 24.6324C47.0133 24.6846 46.9464 24.6223 46.8777 24.5976C43.4829 23.3609 40.0888 22.1226 36.6953 20.8828C36.6494 20.8664 36.6036 20.8435 36.5605 20.8234C36.5605 20.676 36.5605 20.5287 36.5605 20.3813C36.5917 17.2138 36.5468 14.0463 36.6045 10.8789C36.6669 7.435 36.6201 3.99023 36.6201 0.545443C36.6201 0.453924 36.6201 0.368803 36.6201 0.280029C36.6189 0.265406 36.6205 0.250684 36.625 0.236711C36.6295 0.222738 36.6368 0.209799 36.6463 0.198643C36.6559 0.187487 36.6675 0.178328 36.6807 0.171719C36.6938 0.16511 36.7081 0.161195 36.7228 0.160156Z" fill="#FF9F30"/><path d="M36.7219 0.160105C36.7072 0.161254 36.693 0.165313 36.6799 0.172031C36.6668 0.178748 36.6552 0.187991 36.6457 0.199234C36.6362 0.210477 36.6291 0.223475 36.6247 0.237497C36.6203 0.25152 36.6188 0.266275 36.6202 0.2809C36.6202 0.372419 36.6202 0.45754 36.6202 0.546313C36.6202 3.9911 36.6669 7.43678 36.6046 10.8797C36.5468 14.0481 36.5918 17.2147 36.5606 20.3822C36.5606 20.5295 36.5606 20.6769 36.5606 20.8242C35.7667 21.0832 34.9922 21.3944 34.2093 21.6854C31.6316 22.6427 29.0546 23.6031 26.4781 24.5665C26.3864 24.6003 26.2948 24.6287 26.2031 24.658C26.2251 24.4255 29.7369 16.1146 31.3759 12.3139C33.1423 8.21837 34.8693 4.10549 36.6156 -0.00280762C36.6464 0.0122183 36.6726 0.0353151 36.6913 0.0639996C36.71 0.0926842 36.7206 0.125892 36.7219 0.160105Z" fill="#FFBD4A"/><path d="M36.5679 27.6635C35.1245 28.201 33.681 28.7389 32.2376 29.277C28.9846 30.4973 25.7317 31.7175 22.4787 32.9378C22.4237 32.9588 22.3678 32.9771 22.3128 32.9964C22.2404 32.9259 22.3045 32.8673 22.3274 32.8133C22.8004 31.6236 23.2781 30.4283 23.7465 29.2331C23.7687 29.1701 23.805 29.113 23.8526 29.0662C23.9003 29.0194 23.958 28.9841 24.0215 28.9631C28.1251 27.3597 32.2284 25.7547 36.3314 24.1483C36.4011 24.1208 36.468 24.0623 36.5542 24.097C36.5542 24.2041 36.5615 24.3121 36.5615 24.4192C36.5621 25.4991 36.5643 26.5805 36.5679 27.6635Z" fill="#102837"/><path d="M36.564 27.6653C36.564 26.5811 36.564 25.4969 36.564 24.4127C36.564 24.3056 36.564 24.1977 36.5566 24.0906C37.1461 24.2736 37.7107 24.5235 38.2855 24.7477C41.8397 26.1345 45.393 27.5229 48.9454 28.9128C49.041 28.9435 49.1282 28.9958 49.2002 29.0656C49.2723 29.1354 49.3272 29.221 49.3607 29.3155C49.8035 30.4567 50.2627 31.5924 50.7119 32.7318C50.7421 32.8078 50.8109 32.881 50.7687 32.9991C50.4745 32.8902 50.1838 32.784 49.8942 32.6751L36.7803 27.7623C36.7033 27.7358 36.6346 27.6983 36.564 27.6653Z" fill="#102837"/></g><defs><clipPath id="clip0_214_2825"><rect width="127" height="33" fill="white"/></clipPath></defs></svg>