<svg width="24" height="24" viewBox="0 0 24 24" fill="none" xmlns="http://www.w3.org/2000/svg"><path fill-rule="evenodd" clip-rule="evenodd" d="M9.75055 16.8119C9.75055 16.961 9.80981 17.1041 9.91529 17.2096C10.0208 17.3151 10.1638 17.3743 10.313 17.3743H19.3125C19.4617 17.3743 19.6048 17.3151 19.7103 17.2096C19.8157 17.1041 19.875 16.961 19.875 16.8119V6.68741C19.875 6.53823 19.8157 6.39517 19.7103 6.28968C19.6048 6.1842 19.4617 6.12494 19.3125 6.12494H10.313C10.1638 6.12494 10.0208 6.1842 9.91529 6.28968C9.80981 6.39517 9.75055 6.53823 9.75055 6.68741V8.93729C9.75055 9.08647 9.69129 9.22953 9.58581 9.33502C9.48032 9.4405 9.33726 9.49976 9.18808 9.49976C9.0389 9.49976 8.89584 9.4405 8.79035 9.33502C8.68487 9.22953 8.62561 9.08647 8.62561 8.93729V6.68741C8.62561 6.23988 8.80339 5.81068 9.11984 5.49423C9.43629 5.17778 9.86549 5 10.313 5H19.3125C19.7601 5 20.1893 5.17778 20.5057 5.49423C20.8222 5.81068 20.9999 6.23988 20.9999 6.68741V16.8119C20.9999 17.2594 20.8222 17.6886 20.5057 18.005C20.1893 18.3215 19.7601 18.4993 19.3125 18.4993H10.313C9.86549 18.4993 9.43629 18.3215 9.11984 18.005C8.80339 17.6886 8.62561 17.2594 8.62561 16.8119V14.562C8.62561 14.4128 8.68487 14.2697 8.79035 14.1643C8.89584 14.0588 9.0389 13.9995 9.18808 13.9995C9.33726 13.9995 9.48032 14.0588 9.58581 14.1643C9.69129 14.2697 9.75055 14.4128 9.75055 14.562V16.8119Z" fill="#102837"/><path fill-rule="evenodd" clip-rule="evenodd" d="M3.16525 12.1479C3.11287 12.0956 3.07131 12.0335 3.04295 11.9652C3.0146 11.8969 3 11.8236 3 11.7496C3 11.6757 3.0146 11.6024 3.04295 11.5341C3.07131 11.4657 3.11287 11.4037 3.16525 11.3514L6.54007 7.97659C6.59236 7.92429 6.65445 7.88281 6.72278 7.85451C6.7911 7.82621 6.86434 7.81164 6.9383 7.81164C7.01225 7.81164 7.08549 7.82621 7.15382 7.85451C7.22214 7.88281 7.28423 7.92429 7.33652 7.97659C7.38882 8.02889 7.4303 8.09097 7.45861 8.1593C7.48691 8.22763 7.50148 8.30086 7.50148 8.37482C7.50148 8.44878 7.48691 8.52201 7.45861 8.59034C7.4303 8.65867 7.38882 8.72075 7.33652 8.77305L4.92128 11.1872H14.8129C14.9621 11.1872 15.1051 11.2464 15.2106 11.3519C15.3161 11.4574 15.3753 11.6005 15.3753 11.7496C15.3753 11.8988 15.3161 12.0419 15.2106 12.1474C15.1051 12.2528 14.9621 12.3121 14.8129 12.3121H4.92128L7.33652 14.7262C7.38882 14.7785 7.4303 14.8406 7.45861 14.9089C7.48691 14.9773 7.50148 15.0505 7.50148 15.1245C7.50148 15.1984 7.48691 15.2716 7.45861 15.34C7.4303 15.4083 7.38882 15.4704 7.33652 15.5227C7.28423 15.575 7.22214 15.6165 7.15382 15.6448C7.08549 15.6731 7.01225 15.6876 6.9383 15.6876C6.86434 15.6876 6.7911 15.6731 6.72278 15.6448C6.65445 15.6165 6.59236 15.575 6.54007 15.5227L3.16525 12.1479Z" fill="#102837"/></svg>