<svg width="24" height="24" viewBox="0 0 24 24" fill="none" xmlns="http://www.w3.org/2000/svg"><path d="M5.7482 3C4.23831 3 2.9982 4.24011 2.9982 5.75V14.627C2.98497 14.7075 2.98497 14.7896 2.9982 14.8701V18.25C2.9982 19.7599 4.23831 21 5.7482 21H18.2482C19.7581 21 20.9982 19.7599 20.9982 18.25V14.873C21.0114 14.7925 21.0114 14.7104 20.9982 14.6299V5.75C20.9982 4.24011 19.7581 3 18.2482 3H5.7482ZM5.7482 4.5H8.4982V8.5H4.4982V5.75C4.4982 5.05089 5.04909 4.5 5.7482 4.5ZM9.9982 4.5H18.2482C18.9473 4.5 19.4982 5.05089 19.4982 5.75V8.5H9.9982V4.5ZM4.4982 10H8.4982V14H4.4982V10ZM9.9982 10H19.4982V14H9.9982V10ZM4.4982 15.5H8.4982V19.5H5.7482C5.04909 19.5 4.4982 18.9491 4.4982 18.25V15.5ZM9.9982 15.5H19.4982V18.25C19.4982 18.9491 18.9473 19.5 18.2482 19.5H9.9982V15.5Z" fill="#102837"/></svg>