<svg width="25" height="24" viewBox="0 0 25 24" fill="none" xmlns="http://www.w3.org/2000/svg"><path d="M8.75 4.5C7.56346 4.5 6.55926 5.29201 6.2356 6.375H4.25C3.836 6.375 3.5 6.711 3.5 7.125C3.5 7.539 3.836 7.875 4.25 7.875H6.2356C6.55926 8.95799 7.56346 9.75 8.75 9.75C9.93654 9.75 10.9407 8.95799 11.2644 7.875H20.75C21.164 7.875 21.5 7.539 21.5 7.125C21.5 6.711 21.164 6.375 20.75 6.375H11.2644C10.9407 5.29201 9.93654 4.5 8.75 4.5ZM8.75 6C9.37025 6 9.875 6.50475 9.875 7.125C9.875 7.74525 9.37025 8.25 8.75 8.25C8.12975 8.25 7.625 7.74525 7.625 7.125C7.625 6.50475 8.12975 6 8.75 6ZM16.25 9.375C15.0635 9.375 14.0593 10.167 13.7356 11.25H4.25C3.836 11.25 3.5 11.586 3.5 12C3.5 12.414 3.836 12.75 4.25 12.75H13.7356C14.0593 13.833 15.0635 14.625 16.25 14.625C17.4365 14.625 18.4407 13.833 18.7644 12.75H20.75C21.164 12.75 21.5 12.414 21.5 12C21.5 11.586 21.164 11.25 20.75 11.25H18.7644C18.4407 10.167 17.4365 9.375 16.25 9.375ZM16.25 10.875C16.8702 10.875 17.375 11.3797 17.375 12C17.375 12.6202 16.8702 13.125 16.25 13.125C15.6298 13.125 15.125 12.6202 15.125 12C15.125 11.3797 15.6298 10.875 16.25 10.875ZM10.25 14.25C9.06346 14.25 8.05926 15.042 7.7356 16.125H4.25C3.836 16.125 3.5 16.461 3.5 16.875C3.5 17.289 3.836 17.625 4.25 17.625H7.7356C8.05926 18.708 9.06346 19.5 10.25 19.5C11.4365 19.5 12.4407 18.708 12.7644 17.625H20.75C21.164 17.625 21.5 17.289 21.5 16.875C21.5 16.461 21.164 16.125 20.75 16.125H12.7644C12.4407 15.042 11.4365 14.25 10.25 14.25ZM10.25 15.75C10.8703 15.75 11.375 16.2548 11.375 16.875C11.375 17.4952 10.8703 18 10.25 18C9.62975 18 9.125 17.4952 9.125 16.875C9.125 16.2548 9.62975 15.75 10.25 15.75Z" fill="#4D515B"/></svg>