<svg width="24" height="24" viewBox="0 0 24 24" fill="none" xmlns="http://www.w3.org/2000/svg"><path d="M17.0002 2.00098C16.5735 2.00098 16.1471 2.05273 15.7141 2.15723C15.4031 2.23173 15.1728 2.49645 15.1418 2.81445L15.1213 3.02539C15.0978 3.26589 14.9597 3.48154 14.7502 3.60254C14.5407 3.72304 14.2847 3.73674 14.0657 3.63574L13.8713 3.54785C13.5818 3.41635 13.2368 3.48187 13.0168 3.71387C12.4178 4.34387 11.9708 5.11441 11.7268 5.94141C11.6358 6.24791 11.7505 6.57767 12.011 6.76367L12.1858 6.88867C12.3823 7.03017 12.5002 7.2585 12.5002 7.5C12.5002 7.628 12.4655 7.75135 12.4055 7.86035L12.4993 8.43848L13.2209 8.16504C13.4189 8.09054 13.6262 8.05273 13.8372 8.05273C13.8647 8.05273 13.8917 8.06002 13.9192 8.06152C13.9672 7.87902 14.0002 7.6925 14.0002 7.5C14.0002 6.897 13.7567 6.32232 13.3352 5.90332C13.4552 5.62882 13.6074 5.3675 13.7864 5.125C14.3594 5.2805 14.9782 5.20384 15.5002 4.90234C16.0222 4.60084 16.399 4.10184 16.551 3.52734C16.8555 3.49134 17.1454 3.49134 17.4504 3.52734C17.6019 4.10184 17.9777 4.60084 18.5002 4.90234C19.0217 5.20434 19.6401 5.2805 20.2141 5.125C20.3931 5.367 20.5453 5.62882 20.6653 5.90332C20.2438 6.32282 20.0002 6.897 20.0002 7.5C20.0002 8.103 20.2438 8.67768 20.6653 9.09668C20.5453 9.37118 20.3931 9.6325 20.2141 9.875C19.6411 9.7195 19.0222 9.79616 18.5002 10.0977C17.9777 10.3992 17.6015 10.8982 17.4495 11.4727C17.2775 11.4932 17.1106 11.4986 16.9426 11.4961C17.0281 11.7211 17.1066 11.9477 17.1721 12.1787C17.2481 12.4472 17.2548 12.7238 17.2043 12.9873C17.5608 12.9733 17.9233 12.9303 18.2873 12.8428C18.5978 12.7683 18.8276 12.5035 18.8586 12.1855L18.8791 11.9736C18.9026 11.7331 19.0407 11.5185 19.2502 11.3975C19.4602 11.2775 19.7163 11.2643 19.9348 11.3643L20.1291 11.4521C20.4186 11.5846 20.7641 11.5186 20.9836 11.2861C21.5826 10.6561 22.0297 9.88559 22.2737 9.05859C22.3647 8.75159 22.25 8.42183 21.9895 8.23633L21.8147 8.11133C21.6182 7.96983 21.5002 7.7415 21.5002 7.5C21.5002 7.2585 21.6177 7.03065 21.8137 6.88965L21.9895 6.76367C22.25 6.57817 22.3647 6.24841 22.2737 5.94141C22.0297 5.11441 21.5826 4.34387 20.9836 3.71387C20.7636 3.48137 20.4181 3.41535 20.1291 3.54785L19.9358 3.63574C19.7148 3.73574 19.4592 3.72204 19.2502 3.60254C19.0407 3.48154 18.9026 3.26637 18.8791 3.02637L18.8586 2.81445C18.8276 2.49595 18.5974 2.23173 18.2864 2.15723C17.8534 2.05273 17.427 2.00098 17.0002 2.00098ZM17.0002 5.5C16.3961 5.5 15.848 5.75357 15.5022 6.14258C15.1564 6.53159 15.0002 7.02083 15.0002 7.5C15.0002 7.97917 15.1564 8.46841 15.5022 8.85742C15.848 9.24643 16.3961 9.5 17.0002 9.5C17.6044 9.5 18.1525 9.24643 18.4983 8.85742C18.8441 8.46841 19.0002 7.97917 19.0002 7.5C19.0002 7.02083 18.8441 6.53159 18.4983 6.14258C18.1525 5.75357 17.6044 5.5 17.0002 5.5ZM9.00024 7C8.36138 7 7.74896 7.08804 7.16918 7.2334C7.0272 7.26904 6.89875 7.34545 6.79966 7.45321C6.70058 7.56097 6.63519 7.69537 6.61156 7.83984L6.48754 8.59863C6.4388 8.89565 6.26042 9.15344 6.00024 9.30371C5.74004 9.45399 5.42884 9.47952 5.14672 9.37305L4.42504 9.09961C4.28815 9.0479 4.13913 9.03736 3.99632 9.06928C3.85351 9.10121 3.72317 9.17421 3.62133 9.2793C2.76982 10.1569 2.13307 11.2421 1.79028 12.4521C1.75043 12.5929 1.75259 12.7421 1.79649 12.8816C1.84039 13.0211 1.92411 13.1448 2.03735 13.2373L2.63403 13.7256C2.86609 13.9167 3.00024 14.1997 3.00024 14.5C3.00024 14.8007 2.86561 15.084 2.63305 15.2744L2.03637 15.7627C1.9233 15.8554 1.83977 15.979 1.79605 16.1185C1.75233 16.258 1.75032 16.4072 1.79028 16.5479C2.1335 17.7575 2.76971 18.843 3.62133 19.7207C3.72319 19.8254 3.85342 19.8981 3.99602 19.9299C4.13863 19.9616 4.2874 19.951 4.42406 19.8994L5.14672 19.627C5.42803 19.5207 5.73924 19.5457 6.00024 19.6963C6.26084 19.8466 6.4382 20.1039 6.48656 20.4004L6.61059 21.1592C6.63421 21.3036 6.6996 21.438 6.79868 21.5458C6.89777 21.6536 7.02622 21.73 7.16821 21.7656C7.74874 21.9116 8.36138 22 9.00024 22C9.6391 22 10.2515 21.912 10.8313 21.7666C10.9733 21.731 11.1017 21.6545 11.2008 21.5468C11.2999 21.439 11.3653 21.3046 11.3889 21.1602L11.5129 20.4014C11.5617 20.1044 11.74 19.8466 12.0002 19.6963C12.2604 19.546 12.5716 19.5205 12.8538 19.627L13.5754 19.9004C13.7123 19.9521 13.8613 19.9626 14.0042 19.9307C14.147 19.8988 14.2773 19.8258 14.3791 19.7207C15.2307 18.8431 15.8674 17.7579 16.2102 16.5479C16.25 16.4071 16.2479 16.2579 16.204 16.1184C16.1601 15.9789 16.0764 15.8552 15.9631 15.7627L15.3664 15.2744C15.1344 15.0833 15.0002 14.8003 15.0002 14.5C15.0002 14.1993 15.1349 13.916 15.3674 13.7256L15.9641 13.2373C16.0772 13.1446 16.1607 13.021 16.2044 12.8815C16.2481 12.742 16.2501 12.5928 16.2102 12.4521C15.8669 11.2409 15.2265 10.1577 14.3772 9.28125C14.2754 9.17617 14.145 9.10317 14.0022 9.07124C13.8594 9.03931 13.7104 9.04985 13.5735 9.10156L12.8538 9.37305C12.5724 9.47933 12.2603 9.45429 11.9993 9.30371C11.7387 9.15337 11.5613 8.89612 11.5129 8.59961L11.387 7.83301C11.3634 7.68866 11.2982 7.55435 11.1993 7.4466C11.1004 7.33885 10.9721 7.26237 10.8303 7.22656C10.2452 7.07945 9.63162 7 9.00024 7ZM17.0002 7C17.2294 7 17.3063 7.05893 17.3772 7.13867C17.4481 7.21841 17.5002 7.35417 17.5002 7.5C17.5002 7.64583 17.4481 7.78159 17.3772 7.86133C17.3063 7.94107 17.2294 8 17.0002 8C16.7711 8 16.6942 7.94107 16.6233 7.86133C16.5524 7.78159 16.5002 7.64583 16.5002 7.5C16.5002 7.35417 16.5524 7.21841 16.6233 7.13867C16.6942 7.05893 16.7711 7 17.0002 7ZM9.00024 8.5C9.34463 8.5 9.66925 8.56799 9.99731 8.62402L10.0325 8.8418C10.1533 9.58091 10.6011 10.229 11.2502 10.6035C11.8992 10.9779 12.6833 11.0411 13.384 10.7764L13.5842 10.7012C14.0105 11.2153 14.3466 11.7939 14.5832 12.4297L14.4172 12.5654H14.4163C13.8368 13.04 13.5002 13.7507 13.5002 14.5C13.5002 15.2493 13.837 15.9597 14.4153 16.4346L14.4163 16.4355L14.5832 16.5723C14.347 17.2086 14.0115 17.7875 13.5862 18.3008L13.384 18.2236C12.6831 17.9591 11.8981 18.0227 11.2493 18.3975C10.6004 18.7722 10.1537 19.4192 10.0325 20.1582V20.1592L9.99731 20.3721C9.6679 20.43 9.34111 20.5 9.00024 20.5C8.65904 20.5 8.33189 20.4303 8.00219 20.3721L7.96703 20.1592V20.1582C7.84618 19.4191 7.39937 18.771 6.75024 18.3965C6.10123 18.0221 5.31713 17.9589 4.61645 18.2236L4.41332 18.2998C3.98815 17.7865 3.65265 17.208 3.41625 16.5713L3.58324 16.4346H3.58422C4.16367 15.96 4.50024 15.2493 4.50024 14.5C4.50024 13.7507 4.16348 13.0403 3.5852 12.5654L3.58422 12.5645L3.41723 12.4277C3.65352 11.7914 3.989 11.2125 4.4143 10.6992L4.61645 10.7764C5.31732 11.0409 6.10241 10.9773 6.75121 10.6025C7.40003 10.2278 7.84675 9.58078 7.96801 8.8418V8.84082L8.00317 8.62793C8.33255 8.56993 8.65937 8.5 9.00024 8.5ZM9.00024 11.5C8.06274 11.5 7.26464 11.8786 6.75219 12.4551C6.23974 13.0316 6.00024 13.7708 6.00024 14.5C6.00024 15.2292 6.23974 15.9684 6.75219 16.5449C7.26464 17.1214 8.06274 17.5 9.00024 17.5C9.93774 17.5 10.7358 17.1214 11.2483 16.5449C11.7607 15.9684 12.0002 15.2292 12.0002 14.5C12.0002 13.7708 11.7607 13.0316 11.2483 12.4551C10.7358 11.8786 9.93774 11.5 9.00024 11.5ZM9.00024 13C9.56274 13 9.88964 13.1839 10.1272 13.4512C10.3647 13.7184 10.5002 14.1042 10.5002 14.5C10.5002 14.8958 10.3647 15.2816 10.1272 15.5488C9.88964 15.8161 9.56274 16 9.00024 16C8.43774 16 8.11083 15.8161 7.87328 15.5488C7.63574 15.2816 7.50024 14.8958 7.50024 14.5C7.50024 14.1042 7.63574 13.7184 7.87328 13.4512C8.11083 13.1839 8.43774 13 9.00024 13Z" fill="#102837"/></svg>