<svg width="32" height="32" viewBox="0 0 32 32" fill="none" xmlns="http://www.w3.org/2000/svg"><path d="M9.27988 8C8.09176 8 6.95229 8.47123 6.11216 9.31004C5.27203 10.1488 4.80005 11.2865 4.80005 12.4727C4.80005 13.659 5.27203 14.7967 6.11216 15.6355C6.95229 16.4743 8.09176 16.9455 9.27988 16.9455C9.41135 16.9447 9.54273 16.9382 9.67362 16.9258C9.14003 18.6398 8.22746 20.5296 6.59155 21.7546C6.40852 21.8843 6.25338 22.0492 6.13527 22.2398C6.01716 22.4303 5.93848 22.6425 5.90388 22.8639C5.86928 23.0853 5.87946 23.3114 5.93381 23.5288C5.98816 23.7462 6.08559 23.9505 6.22034 24.1297C6.35509 24.3089 6.52443 24.4593 6.71837 24.5721C6.91231 24.6849 7.12691 24.7577 7.3495 24.7863C7.57209 24.8149 7.79817 24.7987 8.01438 24.7386C8.23059 24.6785 8.43255 24.5758 8.60835 24.4365C13.9483 20.4378 13.7597 13.0318 13.7597 13.0318C13.7602 12.9581 13.7558 12.8844 13.7466 12.8113C13.7933 12.1972 13.7124 11.58 13.5091 10.9986C13.3058 10.4171 12.9844 9.88385 12.5651 9.43218C12.1458 8.9805 11.6375 8.62015 11.0722 8.37371C10.5069 8.12726 9.89673 8.00004 9.27988 8ZM22.7194 8C21.5313 8 20.3918 8.47123 19.5517 9.31004C18.7115 10.1488 18.2396 11.2865 18.2396 12.4727C18.2396 13.659 18.7115 14.7967 19.5517 15.6355C20.3918 16.4743 21.5313 16.9455 22.7194 16.9455C22.8509 16.9447 22.9822 16.9382 23.1131 16.9258C22.5795 18.6398 21.667 20.5296 20.0311 21.7546C19.848 21.8843 19.6929 22.0492 19.5748 22.2398C19.4567 22.4303 19.378 22.6425 19.3434 22.8639C19.3088 23.0853 19.319 23.3114 19.3733 23.5288C19.4277 23.7462 19.5251 23.9505 19.6598 24.1297C19.7946 24.3089 19.9639 24.4593 20.1579 24.5721C20.3518 24.6849 20.5664 24.7577 20.789 24.7863C21.0116 24.8149 21.2377 24.7987 21.4539 24.7386C21.6701 24.6785 21.8721 24.5758 22.0479 24.4365C27.3878 20.4378 27.1992 13.0318 27.1992 13.0318C27.1997 12.9581 27.1953 12.8844 27.1861 12.8113C27.2328 12.1972 27.1519 11.58 26.9486 10.9986C26.7453 10.4171 26.4239 9.88385 26.0046 9.43218C25.5853 8.9805 25.077 8.62015 24.5117 8.37371C23.9464 8.12726 23.3362 8.00004 22.7194 8Z" fill="#9095A2"/></svg>