<svg width="127" height="34" viewBox="0 0 127 34" fill="none" xmlns="http://www.w3.org/2000/svg"><path d="M71.8652 10.1507C71.0735 9.37151 70.1401 8.75027 69.1151 8.32036C67.5612 7.57943 65.9072 7.06916 64.2054 6.80572C62.286 6.48097 60.316 6.63374 58.4698 7.2505C57.929 7.43372 57.4203 7.70022 56.9619 8.04031C56.6986 8.23171 56.4732 8.47038 56.2973 8.74411C56.1391 8.97742 56.0624 9.25628 56.079 9.53753C56.0956 9.81878 56.2045 10.0867 56.389 10.2999C56.6352 10.5953 56.9385 10.8381 57.2809 11.0138C57.9609 11.3683 58.6863 11.6282 59.4369 11.7862C60.4749 12.0089 61.526 12.166 62.5839 12.2566C64.4747 12.4142 66.356 12.6693 68.2205 13.0208C69.3414 13.2366 70.4199 13.6322 71.4141 14.1922C72.3344 14.6919 73.1299 15.3922 73.7415 16.2412C74.3532 17.0902 74.7652 18.0659 74.947 19.0958C75.1857 20.2399 75.1622 21.423 74.8782 22.5566C74.5942 23.6903 74.0571 24.7451 73.3071 25.6422C72.4746 26.5931 71.4308 27.3362 70.2591 27.8121C68.9435 28.3878 67.5559 28.7831 66.1341 28.9872C64.4508 29.2483 62.7439 29.3251 61.0438 29.216C58.4456 29.1029 55.8888 28.5251 53.4951 27.5101C52.6549 27.148 51.8657 26.6778 51.1475 26.1117C50.7872 25.8219 50.4557 25.4983 50.1575 25.1453C50.0997 25.0875 50.0595 25.0144 50.0417 24.9347C50.0238 24.855 50.029 24.7719 50.0567 24.695C50.2397 24.0634 50.4972 23.4557 50.8239 22.8847C51.2593 22.1279 51.7103 21.3802 52.1503 20.6251C52.2072 20.5281 52.2566 20.5089 52.3584 20.5611C52.5966 20.6772 52.8278 20.8074 53.0505 20.9509C53.3447 21.1477 53.6408 21.3417 53.925 21.5522C55.2378 22.4973 56.752 23.126 58.3489 23.389C60.4435 23.7569 62.5723 23.8935 64.6968 23.7963C65.8924 23.7521 67.0571 23.4057 68.082 22.7895C68.5559 22.5244 68.9673 22.1608 69.2884 21.7234C69.4416 21.5364 69.5505 21.3173 69.607 21.0825C69.6635 20.8476 69.6662 20.603 69.6147 20.367C69.5128 20.0046 69.2924 19.6867 68.9886 19.4637C68.55 19.1314 68.0523 18.8849 67.5219 18.7371C66.6257 18.4776 65.7034 18.3186 64.7719 18.263C62.3673 18.1115 59.9758 17.7975 57.6137 17.3231C56.5036 17.1099 55.4212 16.7722 54.387 16.3164C52.8216 15.6249 51.5735 14.3716 50.8899 12.8048C50.5304 11.972 50.3594 11.0703 50.3892 10.164C50.419 9.25768 50.6488 8.36911 51.0622 7.56169C51.7643 6.10099 52.8496 4.85744 54.2028 3.96314C55.6948 2.95039 57.3845 2.26422 59.161 1.94971C61.0603 1.59769 63.0044 1.55721 64.9168 1.82984C66.9085 2.0734 68.8573 2.5892 70.7083 3.36277C71.562 3.71965 72.368 4.18076 73.1081 4.73556C73.3965 4.95763 73.663 5.20678 73.9038 5.4796C73.9694 5.54343 74.0141 5.62565 74.0319 5.71535C74.0497 5.80506 74.0399 5.89804 74.0037 5.98205C73.684 6.98272 73.2425 7.94045 72.6892 8.83379C72.417 9.26027 72.1493 9.69315 71.8652 10.1507Z" fill="#102837"/><path d="M14.1122 1.80782C16.545 1.78059 18.9514 2.31293 21.1449 3.36363C22.4934 3.99872 23.6804 4.93016 24.6173 6.08817C25.1651 6.78373 25.585 7.57076 25.8575 8.41274C25.8945 8.49634 25.9032 8.5897 25.8824 8.67869C25.8616 8.76768 25.8123 8.84747 25.742 8.90603C25.4549 9.18903 25.1486 9.45202 24.8254 9.69311C24.0773 10.2691 23.2534 10.7396 22.3769 11.0915C21.7462 11.3295 21.9443 11.334 21.4135 10.9423C21.1572 10.7429 20.9246 10.5148 20.7205 10.2624C19.4003 8.67479 17.5467 7.62084 15.5056 7.29713C13.5239 6.94119 11.4801 7.24203 9.68562 8.15375C8.84325 8.55419 8.09984 9.1354 7.50847 9.85586C6.91711 10.5763 6.49238 11.4183 6.26462 12.3216C5.6906 14.3749 5.68269 16.545 6.2417 18.6025C6.52462 19.7818 7.13143 20.8589 7.99392 21.7127C8.8564 22.5665 9.94034 23.1632 11.1239 23.4356C13.6972 24.1443 16.4468 23.8098 18.7744 22.5049C19.3474 22.1978 19.8698 21.8049 20.3236 21.3398C20.822 20.8484 21.1986 20.2477 21.4236 19.5854C21.4813 19.4088 21.4547 19.3768 21.6885 19.4655C21.9627 19.5736 22.2291 19.7002 22.486 19.8444C23.6199 20.4576 24.6906 21.1705 25.7686 21.8734C25.824 21.9012 25.8663 21.9494 25.8865 22.0079C25.9067 22.0664 25.9032 22.1305 25.8768 22.1864C25.5533 23.345 24.9485 24.406 24.1158 25.2752C23.1222 26.3156 21.9325 27.1497 20.6151 27.7297C19.0645 28.4324 17.4108 28.8814 15.7173 29.0595C14.4076 29.2113 13.0844 29.2073 11.7756 29.0476C9.00719 28.7729 6.38821 27.6629 4.26721 25.8655C2.54122 24.354 1.28927 22.377 0.66193 20.1721C-0.14466 17.3268 -0.215306 14.3238 0.456597 11.4439C0.898976 9.59722 1.77346 7.88155 3.00835 6.43754C4.24324 4.99354 5.80336 3.86234 7.56079 3.13667C9.13016 2.44881 10.8028 2.02515 12.5108 1.88286C13.0471 1.83253 13.5833 1.82338 14.1122 1.80782Z" fill="#102837"/><path d="M74.8594 2.43382C74.9428 2.39365 75.037 2.38114 75.128 2.39813C77.0365 2.39813 78.9453 2.39813 80.8544 2.39813C81.1184 2.39813 81.1203 2.39812 81.211 2.6379C83.6778 9.11564 86.1711 15.5833 88.5444 22.0976C88.6361 22.3557 88.7277 22.6147 88.8193 22.8728C88.9009 23.098 88.9018 23.0979 89.1539 23.0989C89.439 23.0989 89.7251 23.0989 90.0102 23.0989C90.2549 23.0989 90.254 23.0989 90.3347 22.8618C90.7013 21.7966 91.0624 20.7276 91.441 19.666C93.102 14.9985 94.8475 10.3685 96.569 5.72668C96.9509 4.69739 97.3304 3.66721 97.7074 2.63609C97.7991 2.39905 97.7991 2.39631 98.0319 2.39631C99.9704 2.39631 101.909 2.39631 103.847 2.39631C103.913 2.39631 103.985 2.37435 104.057 2.43567C104.043 2.55775 104.007 2.67638 103.952 2.78618C102.891 5.68734 101.752 8.55828 100.62 11.4311C98.3879 17.0857 96.1267 22.7294 93.8363 28.3621C93.7025 28.6879 93.7758 28.6431 93.4173 28.6431C90.8983 28.6431 88.3757 28.6431 85.8613 28.6495C85.7721 28.6604 85.6819 28.64 85.6061 28.5918C85.5303 28.5435 85.4737 28.4704 85.4461 28.385C84.4634 26.2663 83.6071 24.0955 82.7326 21.932C80.1458 15.5324 77.5569 9.13363 74.9658 2.73583C74.9137 2.64179 74.8777 2.53972 74.8594 2.43382Z" fill="#102837"/><path d="M126.995 28.6376H126.754C124.846 28.6376 122.937 28.6376 121.029 28.6376C120.741 28.6376 120.784 28.7026 120.662 28.3768C118.223 21.9631 115.752 15.5641 113.406 9.11288C113.292 8.79989 113.181 8.48507 113.068 8.17208C112.986 7.94694 112.985 7.94693 112.734 7.94602C112.449 7.94602 112.163 7.94144 111.878 7.94602C111.627 7.94602 111.625 7.94601 111.549 8.17847C110.868 10.2358 110.133 12.2731 109.385 14.3103C107.719 18.8356 106.047 23.3591 104.369 27.8807C104.295 28.083 104.219 28.2852 104.153 28.4902C104.114 28.6129 104.046 28.6733 103.916 28.6477C103.886 28.6451 103.855 28.6451 103.825 28.6477H98.0699C97.9914 28.6584 97.9117 28.6516 97.8362 28.6275C97.8326 28.4994 97.8643 28.3728 97.9279 28.2615C98.7822 25.9122 99.6979 23.5857 100.613 21.2602C103.054 15.0571 105.531 8.86821 108.046 2.69372C108.181 2.36516 108.098 2.40177 108.488 2.40177C110.996 2.40177 113.505 2.40177 116.014 2.39445C116.108 2.38357 116.204 2.40621 116.283 2.45841C116.362 2.51061 116.421 2.58906 116.448 2.68C117.421 4.7703 118.265 6.9146 119.129 9.05065C121.723 15.4674 124.318 21.8835 126.915 28.299C126.976 28.4008 127.004 28.5191 126.995 28.6376Z" fill="#102837"/><path d="M36.7208 0.660217C37.1761 1.72428 37.6311 2.78832 38.0857 3.85239C39.8127 7.91462 41.5385 11.9775 43.2631 16.0409L47.06 24.9787C47.082 25.029 47.0966 25.0821 47.115 25.1324C47.0114 25.1846 46.9445 25.1224 46.8757 25.0977C43.481 23.8609 40.0868 22.6227 36.6933 21.3829C36.6475 21.3664 36.6017 21.3436 36.5586 21.3234C36.5586 21.1761 36.5586 21.0287 36.5586 20.8814C36.5898 17.7139 36.5448 14.5464 36.6026 11.3789C36.6649 7.93506 36.6182 4.49029 36.6182 1.0455C36.6182 0.953985 36.6182 0.868864 36.6182 0.78009C36.6169 0.765467 36.6185 0.750745 36.623 0.736772C36.6275 0.722799 36.6348 0.70986 36.6444 0.698704C36.6539 0.687548 36.6656 0.678389 36.6787 0.67178C36.6918 0.665171 36.7062 0.661256 36.7208 0.660217Z" fill="#102837"/><path d="M36.7219 0.660166C36.7072 0.661315 36.693 0.665374 36.6799 0.672092C36.6668 0.678809 36.6552 0.688052 36.6457 0.699295C36.6362 0.710538 36.6291 0.723536 36.6247 0.737558C36.6203 0.751581 36.6188 0.766336 36.6202 0.780961C36.6202 0.87248 36.6202 0.957601 36.6202 1.04637C36.6202 4.49116 36.6669 7.93684 36.6046 11.3798C36.5468 14.5482 36.5918 17.7148 36.5606 20.8823C36.5606 21.0296 36.5606 21.177 36.5606 21.3243C35.7667 21.5833 34.9922 21.8944 34.2093 22.1855C31.6316 23.1428 29.0546 24.1031 26.4781 25.0665C26.3864 25.1004 26.2948 25.1287 26.2031 25.158C26.2251 24.9256 29.7369 16.6147 31.3759 12.8139C33.1423 8.71843 34.8693 4.60555 36.6156 0.497253C36.6464 0.512279 36.6726 0.535376 36.6913 0.564061C36.71 0.592745 36.7206 0.625953 36.7219 0.660166Z" fill="#102837"/><path d="M36.566 28.1636C35.1225 28.7011 33.6791 29.2389 32.2356 29.7771C28.9827 30.9973 25.7297 32.2176 22.4768 33.4378C22.4218 33.4589 22.3658 33.4772 22.3108 33.4964C22.2384 33.426 22.3026 33.3674 22.3255 33.3134C22.7985 32.1236 23.2761 30.9284 23.7445 29.7332C23.7667 29.6702 23.803 29.6131 23.8507 29.5663C23.8983 29.5195 23.9561 29.4842 24.0195 29.4631C28.1231 27.8597 32.2265 26.2548 36.3295 24.6483C36.3992 24.6209 36.4661 24.5623 36.5522 24.5971C36.5522 24.7042 36.5596 24.8122 36.5596 24.9192C36.5602 25.9992 36.5623 27.0806 36.566 28.1636Z" fill="#102837"/><path d="M36.562 28.1654C36.562 27.0812 36.562 25.997 36.562 24.9128C36.562 24.8057 36.562 24.6977 36.5547 24.5906C37.1441 24.7737 37.7088 25.0235 38.2835 25.2478C41.8377 26.6346 45.3911 28.023 48.9435 29.4128C49.0391 29.4435 49.1263 29.4958 49.1983 29.5657C49.2703 29.6355 49.3252 29.721 49.3587 29.8155C49.8015 30.9568 50.2607 32.0925 50.7099 33.2319C50.7402 33.3079 50.8089 33.3811 50.7668 33.4991C50.4725 33.3902 50.1819 33.2841 49.8922 33.1751L36.7784 28.2624C36.7014 28.2359 36.6326 28.1983 36.562 28.1654Z" fill="#102837"/></svg>