<svg width="24" height="24" viewBox="0 0 24 24" fill="none" xmlns="http://www.w3.org/2000/svg"><path d="M12.8483 3.35131C12.6233 3.12637 12.3182 3 12 3C11.6818 3 11.3767 3.12637 11.1517 3.35131L3.17594 11.3258C3.12016 11.3816 3.07591 11.4478 3.04573 11.5207C3.01554 11.5936 3 11.6717 3 11.7506C3 11.8295 3.01554 11.9076 3.04573 11.9805C3.07591 12.0534 3.12016 12.1196 3.17594 12.1754C3.2886 12.288 3.44139 12.3513 3.60071 12.3513C3.67959 12.3513 3.75771 12.3358 3.83059 12.3056C3.90347 12.2754 3.96969 12.2312 4.02547 12.1754L4.80061 11.399V17.7501C4.80061 18.2275 4.99023 18.6853 5.32777 19.0228C5.66531 19.3603 6.12311 19.55 6.60045 19.55H17.3995C17.8769 19.55 18.3347 19.3603 18.6722 19.0228C19.0098 18.6853 19.1994 18.2275 19.1994 17.7501V11.399L19.9745 12.1754C20.0872 12.288 20.24 12.3513 20.3993 12.3513C20.5586 12.3513 20.7114 12.288 20.8241 12.1754C20.9367 12.0627 21 11.9099 21 11.7506C21 11.5913 20.9367 11.4385 20.8241 11.3258L17.9995 8.50248V4.55121C17.9995 4.3921 17.9363 4.2395 17.8238 4.12699C17.7113 4.01447 17.5587 3.95126 17.3995 3.95126H16.1996C16.0405 3.95126 15.8879 4.01447 15.7754 4.12699C15.6629 4.2395 15.5997 4.3921 15.5997 4.55121V6.10268L12.8483 3.35131ZM17.9995 10.1991V17.7501C17.9995 17.9092 17.9363 18.0618 17.8238 18.1743C17.7113 18.2868 17.5587 18.3501 17.3995 18.3501H6.60045C6.44134 18.3501 6.28874 18.2868 6.17623 18.1743C6.06371 18.0618 6.00051 17.9092 6.00051 17.7501V10.1991L12 4.19964L17.9995 10.1991Z" fill="#102837"/></svg>