<svg width="24" height="24" viewBox="0 0 24 24" fill="none" xmlns="http://www.w3.org/2000/svg"><path d="M4.49347 13.2648C4.49915 13.4596 4.58041 13.6445 4.72004 13.7804L11.72 20.7804C11.8607 20.921 12.0514 21 12.2503 21C12.4492 21 12.6399 20.921 12.7806 20.7804L19.7806 13.7804C19.8526 13.7113 19.91 13.6285 19.9496 13.5369C19.9892 13.4453 20.0101 13.3468 20.0111 13.247C20.0121 13.1472 19.9932 13.0482 19.9555 12.9558C19.9178 12.8635 19.862 12.7795 19.7915 12.709C19.7209 12.6384 19.637 12.5826 19.5446 12.5449C19.4522 12.5072 19.3532 12.4883 19.2535 12.4893C19.1537 12.4903 19.0551 12.5113 18.9635 12.5508C18.8719 12.5904 18.7891 12.6479 18.72 12.7199L13.0003 18.4396L13.0003 3.75014C13.0017 3.65076 12.9834 3.55209 12.9463 3.45986C12.9092 3.36764 12.8542 3.2837 12.7844 3.21292C12.7146 3.14214 12.6315 3.08594 12.5398 3.04758C12.4481 3.00922 12.3497 2.98946 12.2503 2.98946C12.1509 2.98946 12.0525 3.00922 11.9608 3.04758C11.8691 3.08594 11.786 3.14214 11.7162 3.21292C11.6464 3.2837 11.5914 3.36764 11.5543 3.45986C11.5173 3.55209 11.4989 3.65076 11.5003 3.75014L11.5003 18.4396L5.78058 12.7199C5.67521 12.6117 5.53962 12.5378 5.39157 12.5079C5.24351 12.4781 5.08989 12.4936 4.95081 12.5525C4.81172 12.6114 4.69366 12.7109 4.61206 12.838C4.53046 12.9651 4.48913 13.1138 4.49347 13.2648Z" fill="#4D515B"/></svg>