<svg width="14" height="14" viewBox="0 0 14 14" fill="none" xmlns="http://www.w3.org/2000/svg"><path d="M6.99967 0.333984C3.3237 0.333984 0.333008 3.32468 0.333008 7.00065C0.333008 10.6766 3.3237 13.6673 6.99967 13.6673C10.6757 13.6673 13.6663 10.6766 13.6663 7.00065C13.6663 3.32468 10.6757 0.333984 6.99967 0.333984ZM6.99967 1.33398C10.1352 1.33398 12.6663 3.86511 12.6663 7.00065C12.6663 10.1362 10.1352 12.6673 6.99967 12.6673C3.86414 12.6673 1.33301 10.1362 1.33301 7.00065C1.33301 3.86511 3.86414 1.33398 6.99967 1.33398ZM9.48991 4.99609C9.36005 4.99988 9.23677 5.05405 9.14616 5.14714L6.16634 8.12695L4.85319 6.8138C4.80712 6.76582 4.75193 6.72751 4.69087 6.70111C4.6298 6.67472 4.56409 6.66078 4.49757 6.6601C4.43105 6.65943 4.36506 6.67203 4.30348 6.69718C4.24189 6.72232 4.18594 6.7595 4.1389 6.80654C4.09186 6.85358 4.05468 6.90953 4.02953 6.97112C4.00439 7.03271 3.99179 7.09869 3.99246 7.16521C3.99314 7.23173 4.00708 7.29745 4.03347 7.35851C4.05986 7.41958 4.09817 7.47476 4.14616 7.52083L5.81283 9.1875C5.9066 9.28123 6.03376 9.33389 6.16634 9.33389C6.29893 9.33389 6.42608 9.28123 6.51986 9.1875L9.85319 5.85417C9.92532 5.78391 9.97457 5.69352 9.99448 5.59482C10.0144 5.49612 10.004 5.39371 9.96479 5.30098C9.92553 5.20826 9.8592 5.12955 9.77447 5.07515C9.68974 5.02075 9.59056 4.99319 9.48991 4.99609Z" fill="black"/></svg>