<svg width="24" height="24" viewBox="0 0 24 24" fill="none" xmlns="http://www.w3.org/2000/svg"><path d="M19.5875 5.00781C20.431 5.00781 20.653 5.64581 20.4035 7.14381C20.118 8.85681 19.2955 14.5283 18.6395 18.0588C18.3885 19.4098 17.936 19.9923 17.2775 19.9923C16.9155 19.9923 16.4915 19.8163 16.0045 19.4948C15.3445 19.0588 12.0125 16.8553 11.289 16.3378C10.629 15.8663 9.71854 15.2988 10.8605 14.1818C11.267 13.7838 13.9305 11.2403 16.0055 9.26081C16.227 9.04931 16.0415 8.72681 15.7955 8.72681C15.7395 8.72681 15.68 8.74381 15.622 8.78231C12.825 10.6373 8.94654 13.2118 8.45304 13.5473C7.95955 13.8823 7.47854 14.0973 6.83754 14.0973C6.51005 14.0973 6.14054 14.0413 5.70604 13.9163C4.73454 13.6373 3.78605 13.3048 3.41655 13.1778C1.99405 12.6898 2.33155 12.0573 3.71305 11.4493C9.25204 9.01281 16.4195 6.04181 17.409 5.63081C18.373 5.23031 19.089 5.00781 19.5875 5.00781ZM19.5875 3.50781C18.9035 3.50781 18.08 3.72831 16.8345 4.24481L16.685 4.30681C11.3675 6.51481 6.54605 8.56381 3.10905 10.0758C2.57205 10.3123 0.938545 11.0308 1.00204 12.5338C1.02904 13.1823 1.38604 14.0663 2.93005 14.5958L3.04404 14.6348C3.47504 14.7833 4.37254 15.0928 5.29254 15.3573C5.85254 15.5183 6.35854 15.5963 6.83804 15.5963C7.67004 15.5963 8.31454 15.3588 8.81854 15.0823C8.81604 15.1663 8.81805 15.2508 8.82454 15.3358C8.91554 16.4918 9.80954 17.1258 10.3435 17.5048L10.418 17.5578C11.2065 18.1218 14.775 20.4793 15.179 20.7458C15.9395 21.2478 16.626 21.4913 17.2785 21.4913C18.3045 21.4913 19.63 20.9433 20.115 18.3323C20.5755 15.8558 21.1075 12.3963 21.496 9.87031C21.6615 8.79231 21.7975 7.90831 21.884 7.38981C22.0585 6.34281 22.1385 5.15681 21.41 4.29731C21.104 3.93731 20.54 3.50781 19.5875 3.50781Z" fill="black"/></svg>